<?xml version="1.0" encoding="UTF-8" standalone="no"?>
<!-- Generator: Adobe Illustrator 23.0.2, SVG Export Plug-In . SVG Version: 6.00 Build 0)  -->

<svg
   xmlns:dc="http://purl.org/dc/elements/1.1/"
   xmlns:cc="http://creativecommons.org/ns#"
   xmlns:rdf="http://www.w3.org/1999/02/22-rdf-syntax-ns#"
   xmlns:svg="http://www.w3.org/2000/svg"
   xmlns="http://www.w3.org/2000/svg"
   xmlns:sodipodi="http://sodipodi.sourceforge.net/DTD/sodipodi-0.dtd"
   xmlns:inkscape="http://www.inkscape.org/namespaces/inkscape"
   version="1.1"
   x="0px"
   y="0px"
   viewBox="0 0 800 800"
   style="enable-background:new 0 0 800 800;"
   xml:space="preserve"
   id="svg4710"
   sodipodi:docname="award.svg"
   inkscape:version="0.92.4 (5da689c313, 2019-01-14)"><metadata
   id="metadata4716"><rdf:RDF><cc:Work
       rdf:about=""><dc:format>image/svg+xml</dc:format><dc:type
         rdf:resource="http://purl.org/dc/dcmitype/StillImage" /></cc:Work></rdf:RDF></metadata><defs
   id="defs4714" /><sodipodi:namedview
   pagecolor="#ffffff"
   bordercolor="#666666"
   borderopacity="1"
   objecttolerance="10"
   gridtolerance="10"
   guidetolerance="10"
   inkscape:pageopacity="0"
   inkscape:pageshadow="2"
   inkscape:window-width="1920"
   inkscape:window-height="1137"
   id="namedview4712"
   showgrid="false"
   inkscape:zoom="1.23375"
   inkscape:cx="394.32624"
   inkscape:cy="400"
   inkscape:window-x="-8"
   inkscape:window-y="-8"
   inkscape:window-maximized="1"
   inkscape:current-layer="svg4710" />
<style
   type="text/css"
   id="style4618">
	.st0{fill:none;}
	.st1{display:none;}
	.st2{display:inline;}
	.st3{fill:#F4B71A;}
	.st4{fill:#EF6A57;}
	.st5{fill:#DB5242;}
	.st6{fill:#2583C6;}
	.st7{fill:#14668F;}
	.st8{fill:#F37A77;}
	.st9{fill:#E47E26;}
	.st10{fill:#E54D3C;}
	.st11{fill:#F05566;}
	.st12{fill:#A5A5A4;}
	.st13{fill:#FCCE65;}
	.st14{fill:#E2A425;}
	.st15{fill:#F1C266;}
	.st16{fill:#0B6EA0;}
</style>


<g
   id="Calque_5">
	<g
   id="g4689">
		<path
   class="st4"
   d="M321.4,227.9l-34.1,43.9l39.4-4.9l9.8,34.5L371,257l0.2-0.2c-6.8-6.9-14.3-13.1-22.3-18.6    C340,233.9,330.8,230.5,321.4,227.9z"
   id="path4685" />
		<path
   class="st4"
   d="M479.6,227.9c-9.4,2.6-18.6,6-27.4,10.3c-8,5.5-15.5,11.7-22.3,18.6l34.6,44.5l9.8-34.5l39.4,4.9L479.6,227.9    z"
   id="path4687" />
	</g>
	<path
   class="st3"
   d="M503.9,148.7c0-20.6,12.9-44.9,3.2-61.5c-9.9-17.2-37.7-18.1-54.9-28c-16.7-9.7-31.1-33.5-51.7-33.5   s-35,23.9-51.7,33.5c-17.2,9.9-45,10.8-54.9,28c-9.6,16.7,3.2,40.9,3.2,61.6s-12.9,44.9-3.2,61.5c9.9,17.2,37.7,18.1,54.9,28   c16.7,9.7,31.1,33.5,51.7,33.5s35-23.9,51.7-33.5c17.2-9.9,45-10.8,54.9-28C516.8,193.6,503.9,169.3,503.9,148.7z"
   id="path4691" />
	<circle
   class="st13"
   cx="400.5"
   cy="148.7"
   r="83.7"
   id="circle4693" />
	<path
   class="st6"
   d="M449.4,129h-33.7l-10.4-32.1c-0.8-2.6-3.6-4-6.2-3.1c-1.5,0.5-2.7,1.7-3.1,3.1L385.4,129h-33.7   c-2.7,0-4.9,2.2-4.9,4.9c0,1.6,0.8,3.1,2,4l27.3,19.8l-10.4,32.1c-0.8,2.6,0.6,5.4,3.2,6.2c1.5,0.5,3.1,0.2,4.4-0.7l27.3-19.8   l27.3,19.8c2.2,1.6,5.3,1.1,6.9-1.1c0.9-1.3,1.2-2.9,0.7-4.4l-10.4-32.1l27.3-19.8c2.2-1.6,2.7-4.7,1.1-6.9   C452.4,129.7,450.9,129,449.4,129z"
   id="path4695" />
	<path
   class="st14"
   d="M507.1,87.1c-0.2-0.4-0.5-0.7-0.7-1c-7.2,13.8-15.8,26.8-25.7,38.9c13.1,44.3-12.3,90.8-56.6,103.9   c-29.1,8.6-60.6,0.7-82.3-20.6c-14.8,2.8-29.8,4.3-44.8,4.3c-0.5,0-1,0-1.6,0c11.1,14.9,36.9,16.1,53.3,25.6   c16.7,9.6,31.1,33.5,51.7,33.5c20.6,0,35-23.9,51.7-33.5c17.2-9.9,45-10.8,54.9-28c9.6-16.7-3.2-40.9-3.2-61.6   S516.8,103.8,507.1,87.1z"
   id="path4697" />
	<path
   class="st15"
   d="M429.6,172.1l5.8,17.8c0.8,2.6-0.6,5.4-3.2,6.2c-1.5,0.5-3.1,0.2-4.4-0.7l-16.5-12   c-21.7,12-45.1,20.4-69.4,25.1c32.9,32.4,85.9,32,118.3-0.9c21.3-21.7,29.2-53.2,20.6-82.4C466.1,143.1,448.9,159,429.6,172.1z"
   id="path4699" />
	<g
   id="g4707">
		<path
   class="st16"
   d="M435.4,189.8l-5.8-17.8c-5.9,4-12,7.8-18.4,11.2l16.5,12c2.2,1.6,5.3,1.1,6.9-1.1    C435.6,193,435.9,191.3,435.4,189.8z"
   id="path4701" />
		<path
   class="st5"
   d="M471.9,257c12.8,0,25.4,2.9,36.9,8.4l-29.2-37.5c-9.4,2.6-18.6,6-27.4,10.3c-8,5.5-15.5,11.7-22.3,18.6l6.2,8    C447.4,259.7,459.6,257,471.9,257z"
   id="path4703" />
		<path
   class="st5"
   d="M348.8,238.3c-8.8-4.3-18-7.8-27.4-10.3l-1.5,2c16.6,12,26.5,31.2,26.5,51.7c0,2.6-0.2,5.1-0.5,7.7L371,257    l0.2-0.2C364.3,249.9,356.8,243.7,348.8,238.3z"
   id="path4705" />
	</g>
</g>
</svg>