<?xml version="1.0" encoding="utf-8"?>
<!-- Generator: Adobe Illustrator 24.1.3, SVG Export Plug-In . SVG Version: 6.00 Build 0)  -->
<svg version="1.1" xmlns="http://www.w3.org/2000/svg" xmlns:xlink="http://www.w3.org/1999/xlink" x="0px" y="0px"
	 viewBox="0 0 800 800" style="enable-background:new 0 0 800 800;" xml:space="preserve">
<style type="text/css">
	.st0{display:none;}
	.st1{display:inline;}
	.st2{fill:#F4B71A;}
	.st3{fill:#EF6A57;}
	.st4{fill:#DB5242;}
	.st5{fill:#2583C6;}
	.st6{fill:#14668F;}
	.st7{fill:#F37A77;}
	.st8{fill:#E47E26;}
	.st9{fill:#E54D3C;}
	.st10{fill:#F05566;}
	.st11{fill:#A5A5A4;}
	.st12{display:inline;fill:none;stroke:#00FFFF;stroke-width:2;stroke-miterlimit:10;}
	.st13{fill:none;stroke:#88AC2E;stroke-width:6;stroke-linecap:round;stroke-linejoin:round;stroke-miterlimit:10;}
	.st14{fill:none;stroke:#A8A7AA;stroke-width:3;stroke-linecap:round;stroke-linejoin:round;}
	.st15{fill:none;stroke:#A8A7AA;stroke-width:3;stroke-linecap:round;stroke-linejoin:round;stroke-dasharray:6.3185,8.4247;}
	
		.st16{fill:none;stroke:#A8A7AA;stroke-width:3;stroke-linecap:round;stroke-linejoin:round;stroke-miterlimit:10;stroke-dasharray:6,8;}
	.st17{fill:none;stroke:#A7C732;stroke-width:6;stroke-linecap:round;stroke-linejoin:round;stroke-miterlimit:10;}
	
		.st18{fill:none;stroke:#3C6530;stroke-width:3;stroke-linecap:round;stroke-linejoin:round;stroke-miterlimit:10;stroke-dasharray:6,8;}
	.st19{fill:none;stroke:#3C6530;stroke-width:3;stroke-linecap:round;stroke-linejoin:round;}
	.st20{fill:none;stroke:#3C6530;stroke-width:3;stroke-linecap:round;stroke-linejoin:round;stroke-dasharray:5.2074,6.9432;}
	.st21{fill:none;stroke:#3C6530;stroke-width:3;stroke-linecap:round;stroke-linejoin:round;stroke-dasharray:6.3964,8.5286;}
	.st22{fill:none;stroke:#88AC2E;stroke-width:3;stroke-linecap:round;stroke-linejoin:round;}
</style>
<g id="mockup" class="st0">
	
		<image style="display:inline;overflow:visible;" width="633" height="242" xlink:href="61B2988B.jpg"  transform="matrix(3.9645 0 0 3.9645 0 -17.0001)">
	</image>
</g>
<g id="draft" inkscape:version="0.92.4 (5da689c313, 2019-01-14)" sodipodi:docname="cake.svg" xmlns:cc="http://creativecommons.org/ns#" xmlns:dc="http://purl.org/dc/elements/1.1/" xmlns:inkscape="http://www.inkscape.org/namespaces/inkscape" xmlns:rdf="http://www.w3.org/1999/02/22-rdf-syntax-ns#" xmlns:sodipodi="http://sodipodi.sourceforge.net/DTD/sodipodi-0.dtd" xmlns:svg="http://www.w3.org/2000/svg" class="st0">
	<g id="anniversaire_2_" class="st1">
		<g id="Page-1_2_">
			<g id="g4881_2_" transform="translate(0 -1)">
				<path id="Shape_2_" class="st2" d="M513.2,219.7l-2.6,44.4L495.9,278l-49,8.9H344.3l-44.6-8.9L285,264.1l-1.5-25.9l-1.1-18.5
					l8.4-13.1h214L513.2,219.7z"/>
				<path id="path4824_2_" class="st3" d="M527.1,175.1c-0.1,4.2-1,31.7-13.4,44.1c-2.9,3.6-7.6,5.4-12.2,4.7
					c-4.5-1.1-6.8-5.2-9.9-8.2c-3.9-3.4-9.2-4.7-14.2-3.5c-9.7,1.9-15.6,10-22.5,16.2c-2.7,2.7-6.5,4-10.3,3.5
					c-3.9-1.2-7.4-3.4-10.3-6.3c-4.3-4.5-11.2-5.4-16.6-2.3c-6.8,4.1-11.4,9.2-20,9.2s-13.2-5.1-20-9.2c-5.4-3.2-12.2-2.2-16.6,2.3
					c-2.8,2.9-6.4,5.1-10.3,6.3c-3.8,0.5-7.6-0.8-10.3-3.5c-6.9-6.2-12.8-14.4-22.5-16.2c-5-1.1-10.3,0.2-14.2,3.5
					c-3.1,2.9-5.5,7-9.9,8.2c-4.6,0.7-9.2-1.1-12.2-4.7c-12.4-12.4-13.3-40-13.4-44.1C268.7,190,526.7,190.1,527.1,175.1
					L527.1,175.1z"/>
				<path id="path4826_2_" class="st4" d="M527.1,174.9v0.2c-0.4,14.9-58.1,27-129.3,27c-71.3,0-129.1-12.1-129.3-27.1v0
					c0.1-12.7,41.8-23.4,98.1-26.3H429C485.2,151.6,526.9,162.3,527.1,174.9L527.1,174.9z"/>
				<path id="path4828_2_" class="st5" d="M397.8,99.6c-17.3,0-31.2,3.6-31.2,8v59.8c0,4.4,14,8,31.2,8s31.2-3.6,31.2-8v-59.8
					C429,103.2,415,99.6,397.8,99.6z"/>
				<path id="path4830_2_" class="st6" d="M429,107.6v0.9c0,4.9-14,8.9-31.2,8.9s-31.2-4-31.2-8.9v-0.9c0-4.4,14-8,31.2-8
					S429,103.2,429,107.6z"/>
				<path id="path4832_2_" class="st2" d="M429,121.9v17.8c-21.9,18.7-48.8,20-62.4,19.2V141C380.2,141.8,407,140.5,429,121.9
					L429,121.9z"/>
				<path id="path4834_2_" class="st5" d="M270.6,269.9c0.4-2.6,2-4.9,4.4-6.3c2.3-1.3,5.1-1.5,7.6-0.5c0.8,0.3,1.6,0.6,2.4,1
					c22.2,8.2,64.4,13.9,112.8,13.9s90.6-5.6,112.8-13.9c0.8-0.3,1.7-0.6,2.4-1c2.5-1,5.3-0.8,7.6,0.5s3.9,3.6,4.4,6.3
					c0.7,4-1.4,7.9-5.1,9.6c-3.4,1.5-6.9,2.8-10.4,3.9c-31.8,10.3-78.6,12.4-111.7,12.4s-79.9-2.1-111.7-12.4
					c-3.5-1.1-7-2.4-10.4-3.9C272,277.8,269.9,273.9,270.6,269.9z"/>
				<g id="g4844_2_">
					<path id="path4836_2_" class="st7" d="M317.5,184.3c-1.2,0-2.3-0.5-3.2-1.3l-8.9-8.9c-1.7-1.7-1.7-4.5,0.1-6.3s4.5-1.7,6.3-0.1
						l8.9,8.9c1.3,1.3,1.7,3.2,1,4.9C320.9,183.2,319.3,184.3,317.5,184.3L317.5,184.3z"/>
					<path id="path4838_2_" class="st7" d="M348.7,188.8c-1.2,0-2.3-0.5-3.2-1.3l-17.8-17.8c-1.7-1.7-1.7-4.5,0.1-6.3
						s4.5-1.7,6.3-0.1l17.8,17.8c1.3,1.3,1.7,3.2,1,4.9C352.2,187.7,350.5,188.8,348.7,188.8L348.7,188.8z"/>
					<path id="path4840_2_" class="st7" d="M478,184.3c-1.8,0-3.4-1.1-4.1-2.8s-0.3-3.6,1-4.9l8.9-8.9c1.7-1.7,4.5-1.7,6.3,0.1
						c1.7,1.7,1.7,4.5,0.1,6.3l-8.9,8.9C480.3,183.9,479.2,184.3,478,184.3L478,184.3z"/>
					<path id="path4842_2_" class="st7" d="M446.8,188.8c-1.8,0-3.4-1.1-4.1-2.8s-0.3-3.6,1-4.9l17.8-17.8c1.7-1.7,4.5-1.7,6.3,0.1
						c1.7,1.7,1.7,4.5,0.1,6.3L450,187.5C449.1,188.3,448,188.8,446.8,188.8L446.8,188.8z"/>
				</g>
				<circle id="Oval_2_" class="st8" cx="317.5" cy="242.3" r="8.9"/>
				<circle id="circle4847_2_" class="st8" cx="371" cy="251.2" r="8.9"/>
				<circle id="circle4849_2_" class="st9" cx="344.3" cy="255.7" r="4.5"/>
				<circle id="circle4851_2_" class="st8" cx="478" cy="242.3" r="8.9"/>
				<circle id="circle4853_2_" class="st8" cx="424.5" cy="251.2" r="8.9"/>
				<circle id="circle4855_2_" class="st9" cx="451.3" cy="255.7" r="4.5"/>
				<circle id="circle4857_2_" class="st9" cx="397.8" cy="251.2" r="4.5"/>
				<path id="path4859_2_" class="st5" d="M309.4,93.8c-4.8,0-9.5-1.4-13.6-4c-9.8-7-15.1-18.7-13.9-30.7c0.5-7.3,4.1-14,9.7-18.5
					c7.2-5.8,16.3-8.5,25.5-7.6c15.9,1.7,29.8,11.6,36.5,26.2c5.8,13,4.9,23.4-2.6,29.4c-1.2,1-2.9,1.3-4.4,0.7
					c-1.5-0.6-2.6-1.9-2.8-3.5c-0.2-1.6,0.4-3.2,1.7-4.2c5.4-4.3,2.3-13.6,0-18.8c-5.4-11.6-16.5-19.6-29.2-20.9
					c-6.8-0.7-13.6,1.3-18.9,5.6c-3.8,3-6.1,7.5-6.5,12.3c-0.9,8.7,2.8,17.3,9.8,22.5c3.5,2.2,7.7,3.1,11.7,2.3
					c3.3-0.5,6.2-2.6,7.8-5.6c1.6-3.3,1.6-7.2,0-10.5c-0.8-2.2-2.6-3.9-4.8-4.7c-0.3,0-1.2-0.2-2.5,1.5c-1,1.3-2.5,1.9-4.1,1.7
					c-1.6-0.2-2.9-1.2-3.5-2.7s-0.4-3.2,0.6-4.4c2.4-3.5,6.4-5.4,10.6-5c5.4,1.1,9.9,4.8,11.9,10c2.6,5.8,2.5,12.4-0.3,18.1
					c-2.8,5.3-7.9,9.1-13.9,10.2C312.6,93.6,311,93.8,309.4,93.8L309.4,93.8z"/>
				<path id="path4861_2_" class="st3" d="M300.5,131.5c-1.2,0-2.4-0.1-3.6-0.2c-11.4-1.8-21.4-8.3-27.6-18c-1.2-2.1-0.6-4.7,1.4-6
					s4.7-0.8,6.1,1.2c4.8,7.5,12.5,12.6,21.3,14c3.7,0.5,7.5-0.2,10.8-2c2.1-1.4,4-3.1,5.6-5c1.9-2.2,4-4.1,6.3-5.8
					c5.9-4,13.3-4.9,20-2.4c2.3,0.9,3.4,3.5,2.4,5.8c-0.9,2.3-3.5,3.4-5.8,2.4c-3.9-1.4-8.2-0.8-11.5,1.5c-1.8,1.3-3.4,2.9-4.8,4.5
					c-2.2,2.6-4.8,4.8-7.6,6.6C309.5,130.3,305.1,131.5,300.5,131.5z"/>
				<circle id="circle4863_2_" class="st10" cx="339.8" cy="130.8" r="4.5"/>
				<circle id="circle4865_2_" class="st10" cx="272.9" cy="86.2" r="4.5"/>
				<circle id="circle4867_2_" class="st10" cx="371" cy="41.7" r="4.5"/>
				<path id="path4869_2_" class="st4" d="M490.6,93.8c-1.6,0-3.2-0.2-4.8-0.5c-5.9-1.1-11.1-4.9-13.9-10.2
					c-2.8-5.7-2.9-12.3-0.3-18.1c2-5.1,6.5-8.9,11.9-10c4.2-0.4,8.3,1.5,10.6,5c1,1.3,1.2,3,0.6,4.4s-2,2.5-3.5,2.7
					c-1.6,0.2-3.1-0.5-4.1-1.7c-1.3-1.7-2.2-1.6-2.5-1.5c-2.2,0.7-4,2.5-4.8,4.7c-1.6,3.3-1.6,7.2,0,10.5c1.6,3,4.5,5,7.8,5.6
					c4.1,0.8,8.3-0.1,11.7-2.3c7-5.3,10.7-13.8,9.8-22.5c-0.4-4.8-2.7-9.3-6.5-12.4c-5.3-4.3-12.1-6.3-18.9-5.6
					c-12.7,1.4-23.9,9.3-29.2,20.9c-2.3,5.2-5.4,14.5,0,18.8c1.3,1,1.9,2.6,1.7,4.2c-0.2,1.6-1.3,2.9-2.8,3.5s-3.2,0.3-4.4-0.7
					c-7.5-6-8.4-16.4-2.6-29.4c6.7-14.5,20.6-24.4,36.5-26.1c9.2-0.9,18.3,1.8,25.5,7.6c5.7,4.6,9.2,11.3,9.7,18.5
					c1.2,12-4.1,23.7-13.9,30.7C500.1,92.4,495.4,93.8,490.6,93.8L490.6,93.8z"/>
				<path id="path4871_2_" class="st2" d="M499.5,131.5c-4.5,0-9-1.1-12.9-3.4c-2.9-1.8-5.4-4.1-7.6-6.6c-1.4-1.7-3.1-3.2-4.8-4.5
					c-3.4-2.3-7.7-2.9-11.5-1.5c-1.5,0.6-3.2,0.4-4.4-0.6c-1.3-1-1.9-2.6-1.7-4.1c0.2-1.6,1.3-2.9,2.7-3.5c6.7-2.5,14.1-1.6,20,2.4
					c2.3,1.7,4.4,3.6,6.3,5.8c1.6,1.9,3.5,3.6,5.6,5c3.3,1.9,7.1,2.6,10.8,2c8.8-1.5,16.5-6.6,21.3-14c1.4-2,4.1-2.5,6.1-1.2
					s2.6,4,1.4,6c-6.2,9.7-16.3,16.3-27.6,18C501.9,131.4,500.7,131.5,499.5,131.5L499.5,131.5z"/>
				<circle id="circle4873_2_" class="st10" cx="460.2" cy="130.8" r="4.5"/>
				<circle id="circle4875_2_" class="st10" cx="527.1" cy="86.2" r="4.5"/>
				<path id="path4877_2_" class="st11" d="M397.8,108.5c-2.5,0-4.5-2-4.5-4.5V84.2c0-2.5,2-4.5,4.5-4.5s4.5,2,4.5,4.5v19.9
					C402.2,106.5,400.2,108.5,397.8,108.5z"/>
				<path id="path4879_2_" class="st2" d="M418.3,73.9c-7.2,10-19.5,13.4-27.5,7.6S382.1,63,389.3,53c5.1-7,20.2-12.8,28.7-15.6
					c1.4-0.4,2.9-0.2,4.1,0.7s1.9,2.2,1.9,3.6C424.1,50.7,423.4,66.9,418.3,73.9L418.3,73.9z"/>
			</g>
		</g>
	</g>
	
		<image style="display:inline;overflow:visible;" width="436" height="428" xlink:href="61B29889.jpg"  transform="matrix(1.0265 0 0 1.0265 176.92 -60.6021)">
	</image>
	<rect x="270" y="32.2" class="st12" width="260" height="260"/>
</g>
<g id="edit__x7C__remplissage">
</g>
<g id="edit__x7C__contour">
	<path class="st17" d="M487.4,182c-11.5,0.2-19.6-21-31.3-15.6c-7.5,2.7-13.6,13.3-21.2,15.4c-14.2,4-24.4-14.9-36.8-15.4
		c-8,0-14,16.2-22.6,15.6c-12.9,0.1-22-19.7-34.4-15.6c-10,1.6-17,17.8-28.4,15.6"/>
	<path class="st13" d="M487.4,253.2H312.6V155c0-11,9-20,20-20h134.7c11,0,20,9,20,20V253.2z"/>
	<path class="st18" d="M479.9,191.1c-9.9-3.8-17.6-19.8-23.9-13c-5.4,5.9-14.2,13.9-22.7,14.5c-21.4,1.5-31.2-16.3-34.1-13.6
		c-4.6,4.2-15.1,13.9-23.7,13.9c-19.4,0-26.1-22.1-35.8-13.4c-7.8,6.9-10.8,9.1-18.5,12.3"/>
	<g>
		<line class="st13" x1="351.2" y1="134.3" x2="351.2" y2="99.4"/>
		<line class="st13" x1="400" y1="134.3" x2="400" y2="99.4"/>
		<line class="st13" x1="448.8" y1="134.3" x2="448.8" y2="99.4"/>
	</g>
	<path class="st17" d="M342.4,77.5c0,5.2,4,9.5,8.8,9.5c4.9,0,8.8-4.3,8.8-9.5S351.2,62,351.2,62S342.4,72.2,342.4,77.5z"/>
	<path class="st17" d="M391.2,77.5c0,5.2,4,9.5,8.8,9.5s8.8-4.3,8.8-9.5S400,62,400,62S391.2,72.2,391.2,77.5z"/>
	<path class="st17" d="M439.9,77.5c0,5.2,4,9.5,8.8,9.5c4.9,0,8.8-4.3,8.8-9.5S448.8,62,448.8,62S439.9,72.2,439.9,77.5z"/>
	<line class="st13" x1="273.3" y1="253.2" x2="525.1" y2="253.2"/>
</g>
<g id="edit__x7C__pointillés">
	<g>
		<g>
			<line class="st19" x1="500" y1="244" x2="503" y2="244"/>
			<line class="st20" x1="510" y1="244" x2="518.7" y2="244"/>
			<line class="st19" x1="522.1" y1="244" x2="525.1" y2="244"/>
		</g>
	</g>
	<g>
		<g>
			<line class="st19" x1="273.3" y1="244" x2="276.3" y2="244"/>
			<line class="st21" x1="284.8" y1="244" x2="295.5" y2="244"/>
			<line class="st19" x1="299.8" y1="244" x2="302.8" y2="244"/>
		</g>
	</g>
</g>
<g id="vecto">
</g>
</svg>
